<svg viewBox="0 0 539 86" fill="none" xmlns="http://www.w3.org/2000/svg">
<g clip-path="url(#clip0)">
<path d="M347.31 48.18V58.74H334.68V48.18H328.19V74.77H334.68V64.44H347.31V74.77H353.8V48.18H347.31Z" fill="#C8102E"/>
<path fill-rule="evenodd" clipRule="evenodd" d="M25.47 0H60.14C74.17 0 85.6 11.42 85.6 25.47V60.14C85.6 74.17 74.18 85.6 60.14 85.6H25.47C11.42 85.6 0 74.17 0 60.13V25.47C0 11.42 11.42 0 25.47 0ZM69.7898 53.7L69.8198 53.32H75.8698V56.05C75.8698 60.54 75.3598 63.26 74.1098 65.46C72.6998 67.95 69.9598 69.49 66.9498 69.49C64.0598 69.49 61.3698 68.08 59.5798 65.62C58.4698 64.1 57.5498 62.06 56.6198 59.08C54.4298 62.1 52.1098 64.42 49.5698 66.1C45.6398 68.7 41.3898 70.02 36.9498 70.02C29.3198 70.02 23.4998 67.55 18.6298 62.27C13.9598 57.21 11.5898 50.48 11.5898 42.31C11.5898 34.97 14.0798 28.37 18.7998 23.22C23.5398 18.03 29.5398 15.41 36.6398 15.41C41.7798 15.41 46.0398 17.07 49.6598 20.47C51.7398 22.42 53.6098 25.21 54.7798 27.71L54.9598 28.11C56.1298 22.55 57.4298 16.43 57.4298 16.43H71.4698C71.4698 16.43 64.0698 42.52 61.6698 50.67C62.5098 53 63.3498 54.29 64.2798 55.36C65.0598 56.25 66.0098 56.69 67.1898 56.69C68.7398 56.69 69.6698 55.18 69.7898 53.7ZM38.2198 63.31C41.3598 63.31 44.1398 61.66 46.2698 58.54C48.3598 55.47 50.0898 50.16 51.8498 41.38C50.4398 34.87 48.4798 29.82 46.1598 26.75C43.9998 23.91 41.5098 22.58 38.3298 22.58C34.7398 22.58 32.0898 24.16 29.9698 27.54C27.7098 31.14 26.5698 36.19 26.5698 42.53C26.5698 49.45 27.6498 54.76 29.7798 58.3C31.8098 61.67 34.5698 63.31 38.2198 63.31Z" fill="#C8102E"/>
<path d="M128.45 17.66C127.48 13.29 124.72 10.23 118.67 10.23C112.98 10.23 109.86 13.29 108.88 17.66L104.48 37.46H109.18C110.26 37.46 111.32 36.6 111.55 35.56L112.44 31.53H124.89L125.78 35.56C126.01 36.61 127.08 37.46 128.15 37.46H132.85L128.45 17.66ZM113.67 25.95L115.22 18.94C115.47 17.8 116.35 16.07 118.67 16.07C120.98 16.07 121.87 17.8 122.12 18.94L123.67 25.95H113.67Z" fill="#C8102E"/>
<path d="M144.44 16.84H154.92V37.46H161.41V10.87H141.84C139.7 10.87 137.94 12.62 137.94 14.76V28.2C137.94 29.99 137.11 31.14 135.67 31.43L134.34 31.74L135.54 37.45H136.78C141.22 37.45 144.43 34.15 144.43 28.53V16.84H144.44Z" fill="#C8102E"/>
<path d="M217.81 10.87H215.44V7.78003H210.9C209.83 7.78003 208.95 8.65003 208.95 9.73003V10.88H206.59C198.57 10.88 193.55 16.35 193.55 24.17C193.55 32 198.56 37.46 206.59 37.46H208.95V40.69H213.49C214.57 40.69 215.44 39.81 215.44 38.75V37.47H217.81C225.83 37.47 230.85 32.01 230.85 24.18C230.85 16.34 225.83 10.87 217.81 10.87ZM206.59 31.59C202.15 31.59 200.05 28.78 200.05 24.17C200.05 19.56 202.15 16.75 206.59 16.75H208.95V31.59H206.59ZM217.81 31.59H215.44V16.75H217.81C222.25 16.75 224.35 19.56 224.35 24.17C224.35 28.78 222.26 31.59 217.81 31.59Z" fill="#C8102E"/>
<path d="M181.55 17.62H172.23V10.88H165.74V35.52C165.74 36.59 166.62 37.46 167.69 37.46H181.55C187.21 37.46 191.47 33.19 191.47 27.54C191.47 21.88 187.89 17.62 181.55 17.62ZM181.55 31.49H172.23V23.58H181.55C183.14 23.58 184.98 25 184.98 27.54C184.98 30.07 183.14 31.49 181.55 31.49Z" fill="#C8102E"/>
<path d="M255.05 17.66C254.08 13.29 251.32 10.23 245.27 10.23C239.58 10.23 236.45 13.29 235.48 17.66L231.09 37.46H235.79C236.86 37.46 237.93 36.6 238.16 35.56L239.05 31.53H251.5L252.39 35.56C252.62 36.61 253.69 37.46 254.76 37.46H259.46L255.05 17.66ZM240.27 25.95L241.81 18.94C242.07 17.8 242.95 16.07 245.27 16.07C247.58 16.07 248.47 17.8 248.72 18.94L250.26 25.95H240.27Z" fill="#C8102E"/>
<path d="M292.68 60.98C293.83 59.85 294.56 58.32 294.56 56.19C294.56 51.48 290.91 48.18 286.19 48.18H270.32C269.25 48.18 268.37 49.05 268.37 50.12V72.82C268.37 73.89 269.25 74.77 270.32 74.77H287.19C292.16 74.77 295.46 71.21 295.46 66.5C295.47 64.12 294.34 62.27 292.68 60.98ZM286.18 53.7C287.04 53.7 288.22 54.66 288.22 56.32C288.22 57.98 287.04 58.83 286.18 58.94H274.73V53.7H286.18ZM286.71 69.25H274.74V64.01H286.71C287.57 64.12 288.75 64.96 288.75 66.63C288.75 68.28 287.57 69.25 286.71 69.25Z" fill="#C8102E"/>
<path d="M249.8 47.56C241.78 47.56 236.17 53.27 236.17 61.47C236.17 69.66 241.78 75.38 249.8 75.38H252.02C260.05 75.38 265.65 69.67 265.65 61.47C265.65 53.28 260.05 47.56 252.02 47.56H249.8ZM243.18 61.47C243.18 56.71 245.72 53.06 250.2 53.06H251.64C256.11 53.06 258.65 56.71 258.65 61.47C258.65 66.24 256.11 69.89 251.64 69.89H250.2C245.72 69.89 243.18 66.24 243.18 61.47Z" fill="#C8102E"/>
<path d="M128.68 48.18L129.53 52.2C129.76 53.27 130.82 54.14 131.89 54.14H137.94V74.76H144.43V54.15H150.29C151.36 54.15 152.42 53.28 152.65 52.21L153.5 48.19H128.68V48.18Z" fill="#C8102E"/>
<path d="M204.22 54.97C203.25 50.59 200.49 47.54 194.43 47.54C188.75 47.54 185.62 50.59 184.65 54.97L180.25 74.77H184.95C186.02 74.77 187.09 73.91 187.32 72.87L188.21 68.84H200.66L201.55 72.87C201.78 73.91 202.85 74.77 203.92 74.77H208.62L204.22 54.97ZM189.44 63.25L190.98 56.24C191.23 55.11 192.11 53.38 194.43 53.38C196.75 53.38 197.63 55.11 197.88 56.25L199.43 63.26H189.44V63.25Z" fill="#C8102E"/>
<path d="M320.93 54.97C319.96 50.59 317.2 47.54 311.14 47.54C305.45 47.54 302.33 50.59 301.35 54.97L296.95 74.77H301.65C302.72 74.77 303.78 73.91 304.01 72.87L304.9 68.84H317.35L318.24 72.87C318.47 73.91 319.53 74.77 320.6 74.77H325.31L320.93 54.97ZM306.15 63.25L307.69 56.24C307.95 55.11 308.83 53.38 311.14 53.38C313.45 53.38 314.34 55.11 314.59 56.25L316.13 63.26H306.15V63.25Z" fill="#C8102E"/>
<path d="M130.7 74.7V74.77H118.02C110.34 74.77 104.98 69.31 104.98 61.48C104.98 53.66 110.34 48.19 118.02 48.19H127.64L126.7 52.27C126.46 53.31 125.39 54.16 124.31 54.16H118.02C113.92 54.16 111.47 57.22 111.47 61.49C111.47 65.75 113.92 68.82 118.02 68.82H127.39C128.46 68.82 129.53 69.67 129.77 70.71L130.7 74.7Z" fill="#C8102E"/>
<path d="M170.91 48.17L157.05 48.18C155.97 48.18 155.1 49.06 155.1 50.13V74.77H161.59V68.02H170.9C177.25 68.02 180.82 63.75 180.82 58.1C180.83 52.45 176.56 48.17 170.91 48.17ZM170.91 62.05H161.6V54.15H170.91C172.49 54.15 174.34 55.56 174.34 58.1C174.34 60.64 172.49 62.05 170.91 62.05Z" fill="#C8102E"/>
<path d="M408.83 69.15H394.85V64.05H410.05V58.92H394.85V53.79H408.83C409.98 53.79 410.89 53.29 411.21 51.89L412.08 48.17H390.3C389.23 48.17 388.35 49.05 388.35 50.12V72.82C388.35 73.89 389.23 74.76 390.3 74.76H412.07L411.2 71.05C410.89 69.66 409.98 69.15 408.83 69.15Z" fill="#C8102E"/>
<path d="M358.25 74.77V48.18H364.74V65.72L375.99 49.75C376.62 48.89 378.01 48.18 379.09 48.18H383.9V74.77H377.41V57.23L366.16 73.2C365.53 74.06 364.14 74.77 363.07 74.77H358.25Z" fill="#C8102E"/>
<path d="M228.2 61.33L237.26 48.18H231.29C230 48.18 229.1 48.57 228.31 49.82L223.48 57.4H222.62L217.79 49.82C217 48.58 216.09 48.18 214.79 48.18H208.64L217.89 61.61L208.83 74.76H214.79C216.09 74.76 216.99 74.37 217.79 73.12L222.62 65.53H223.48L228.31 73.12C229.1 74.37 230.01 74.76 231.29 74.76H237.45L228.2 61.33Z" fill="#C8102E"/>
<path d="M415.67 64.1L416.45 60.4C416.67 59.33 417.74 58.47 418.82 58.47H436.86L436.08 62.17C435.86 63.25 434.79 64.1 433.71 64.1H415.67Z" fill="#C8102E"/>
<path d="M496.64 71.44C495.6 73.96 494.38 74.78 491.94 74.78C489.49 74.78 488.27 73.96 487.23 71.44L481.42 57.22V74.78H474.9V48.1H481.98C483.5 48.1 484.65 48.7 485.06 49.7L491.95 66.59L498.88 49.7C499.29 48.7 500.43 48.1 501.95 48.1H509.03V74.78H502.51V57.22L496.64 71.44Z" fill="#C8102E"/>
<path d="M526.29 53.73C522.07 53.73 519.62 56.84 519.62 61.47C519.62 66.07 522.06 69.14 526.29 69.14H535.25C536.33 69.14 537.4 69.99 537.66 71.06L538.51 74.76H526.22C518.48 74.76 513.11 69.36 513.11 61.46C513.11 53.61 518.49 48.08 526.22 48.08H536.59L535.74 51.79C535.48 52.86 534.4 53.71 533.34 53.71H526.29V53.73Z" fill="#C8102E"/>
<path d="M454.77 47.56C446.75 47.56 441.14 53.27 441.14 61.47C441.14 69.66 446.75 75.38 454.77 75.38H456.99C465.02 75.38 470.62 69.67 470.62 61.47C470.62 53.28 465.02 47.56 456.99 47.56H454.77ZM448.14 61.47C448.14 56.71 450.68 53.06 455.15 53.06H456.6C461.07 53.06 463.6 56.71 463.6 61.47C463.6 66.24 461.06 69.89 456.6 69.89H455.15C450.68 69.89 448.14 66.24 448.14 61.47Z" fill="#C8102E"/>
</g>
<defs>
<clipPath id="clip0">
<rect width="538.51" height="85.6" fill="white"/>
</clipPath>
</defs>
</svg>
