<svg width="32" height="31" viewBox="0 0 32 31" fill="none" xmlns="http://www.w3.org/2000/svg">
<path d="M3.65166 3.51276H25.6683C27.096 3.51276 28.2482 4.66494 28.2482 6.09264V27.0698C28.2482 28.4975 27.096 29.6497 25.6683 29.6497H3.65166C2.22395 29.6497 1.07178 28.4975 1.07178 27.0698V6.09264C1.07178 4.66494 2.22395 3.51276 3.65166 3.51276Z" stroke="#7C878E" stroke-miterlimit="10" stroke-linecap="round" stroke-linejoin="round"/>
<path d="M5.16699 1.30853V6.14268" stroke="#7C878E" stroke-miterlimit="10" stroke-linecap="round" stroke-linejoin="round"/>
<path d="M9.91357 1.30856V6.14271" stroke="#7C878E" stroke-miterlimit="10" stroke-linecap="round" stroke-linejoin="round"/>
<path d="M14.6602 1.30856V6.14271" stroke="#7C878E" stroke-miterlimit="10" stroke-linecap="round" stroke-linejoin="round"/>
<path d="M19.4062 1.30856V6.14271" stroke="#7C878E" stroke-miterlimit="10" stroke-linecap="round" stroke-linejoin="round"/>
<path d="M24.1528 1.30856V6.14271" stroke="#7C878E" stroke-miterlimit="10" stroke-linecap="round" stroke-linejoin="round"/>
<rect x="26.0386" y="18.1295" width="5.08256" height="4.31542" fill="white"/>
<path d="M1.77686 9.77463L27.5389 9.77463" stroke="#7C878E" stroke-miterlimit="10" stroke-linecap="round" stroke-linejoin="round"/>
<path d="M8.479 20.8823H12.8468L14.5065 24.1145L17.6514 13.8939L20.7088 23.503L22.9801 16.8639L24.2904 20.3582H30.0559" stroke="#C8102E" stroke-linecap="round" stroke-linejoin="round"/>
</svg>
