<svg width="34" height="35" viewBox="0 0 34 35" fill="none" xmlns="http://www.w3.org/2000/svg">
<path d="M19.0682 13.317V27.8158C19.0682 30.1042 17.2081 31.9644 14.9197 31.9644H5.31114C3.02275 31.9644 1.1626 30.1042 1.1626 27.8158V13.317C1.1626 12.7014 1.36333 12.0992 1.73804 11.6175L4.82937 7.54922H15.3881L18.4794 11.6175C18.8541 12.0992 19.0682 12.7014 19.0682 13.317Z" stroke="#7C878E" stroke-miterlimit="10"/>
<rect x="1.91455" y="12.5016" width="16.4114" height="15.1803" fill="white"/>
<path d="M1.20264 12.8008H19.028" stroke="#7C878E" stroke-miterlimit="10"/>
<path d="M1.20264 27.682H19.028" stroke="#7C878E" stroke-miterlimit="10"/>
<path d="M17.0072 2.47729V6.13068C17.0072 6.92024 16.3648 7.54922 15.5887 7.54922H4.64188C3.85232 7.54922 3.20996 6.92024 3.20996 6.13068V2.47729C3.20996 1.68773 3.85232 1.04538 4.64188 1.04538H15.5887C16.3648 1.04538 17.0072 1.68773 17.0072 2.47729Z" stroke="#7C878E" stroke-miterlimit="10"/>
<path d="M10.1152 16.4006V23.0651" stroke="#C8102E" stroke-miterlimit="10"/>
<path d="M13.4476 19.7328H6.7832" stroke="#C8102E" stroke-miterlimit="10"/>
<path d="M30.2202 32.158L30.2203 32.158L30.2263 32.1519C31.3253 31.0339 32.0186 29.505 32.0009 27.7977C31.9979 24.4184 29.2657 21.6681 25.8656 21.6681H16.3949C12.9991 21.6681 10.2437 24.3994 10.2437 27.8034C10.2437 31.2032 12.995 33.9546 16.3949 33.9546H25.8656C27.5626 33.9546 29.1105 33.2677 30.2202 32.158Z" fill="white" stroke="white" stroke-width="2" stroke-miterlimit="10"/>
<path d="M29.5131 31.4508C28.5853 32.3787 27.2894 32.9546 25.8656 32.9546H16.3949C13.5473 32.9546 11.2437 30.651 11.2437 27.8034C11.2437 24.9557 13.5473 22.6681 16.3949 22.6681H25.8656C28.7132 22.6681 31.0009 24.9717 31.0009 27.8034C31.0169 29.2272 30.441 30.507 29.5131 31.4508Z" fill="white" stroke="#7C878E" stroke-miterlimit="10"/>
<path d="M21.1304 32.9546V22.6681" stroke="#7C878E" stroke-miterlimit="10"/>
</svg>
