<svg width="35" height="26" viewBox="0 0 35 26" fill="none" xmlns="http://www.w3.org/2000/svg">
<path d="M7.37598 13.7719L7.49755 13.2869L6.87598 13.1311V13.7719H7.37598ZM13.9028 15.4404L14.0333 14.9578L14.031 14.9572L13.9028 15.4404ZM21.6215 17.6198L21.4835 18.1004L21.4987 18.1048L21.5141 18.1082L21.6215 17.6198ZM21.4131 20.7271L21.3336 21.2207L21.3501 21.2234L21.3667 21.2249L21.4131 20.7271ZM15.719 19.8106L15.7984 19.3169C15.5261 19.2731 15.2698 19.458 15.2255 19.7302C15.1811 20.0024 15.3656 20.2591 15.6377 20.3039L15.719 19.8106ZM22.8133 20.9797L22.9797 20.5082L22.9382 20.4936L22.8946 20.4864L22.8133 20.9797ZM24.0052 20.9116L24.2122 21.3669L24.2226 21.3619L24.0052 20.9116ZM31.5536 17.268L31.3396 16.8161L31.3363 16.8177L31.5536 17.268ZM32.2347 17.2226L32.3965 16.7495L32.3875 16.7464L32.3783 16.7436L32.2347 17.2226ZM33.0973 17.5177L32.9355 17.9908L32.9369 17.9913L33.0973 17.5177ZM33.3017 19.1182L33.0278 18.6998L33.0272 18.7002L33.3017 19.1182ZM24.9019 24.6348L24.6274 24.2168L24.6263 24.2176L24.9019 24.6348ZM22.7679 24.9072L22.7419 25.4067L22.7547 25.407L22.7679 24.9072ZM15.1514 24.5099L15.1775 24.0105L15.167 24.0101L15.1514 24.5099ZM14.0731 24.3056L13.8998 24.7746L13.9059 24.7768L14.0731 24.3056ZM7.37598 21.8311H6.87598V22.1794L7.20268 22.3001L7.37598 21.8311ZM7.37598 13.7719C7.25441 14.2568 7.25442 14.2569 7.25445 14.2569C7.25449 14.2569 7.25453 14.2569 7.2546 14.2569C7.25473 14.2569 7.25492 14.257 7.25518 14.257C7.2557 14.2572 7.25647 14.2574 7.25751 14.2576C7.25957 14.2581 7.26267 14.2589 7.26676 14.2599C7.27495 14.262 7.28715 14.2651 7.30315 14.2691C7.33516 14.2771 7.38242 14.289 7.44337 14.3043C7.56526 14.3349 7.7419 14.3793 7.96083 14.4344C8.39871 14.5447 9.00569 14.6979 9.68215 14.8695C11.0358 15.2128 12.6651 15.6294 13.7746 15.9237L14.031 14.9572C12.9157 14.6613 11.2816 14.2435 9.92803 13.9002C9.25088 13.7284 8.64331 13.5751 8.20503 13.4647C7.98588 13.4095 7.80905 13.3651 7.68698 13.3344C7.62595 13.3191 7.57861 13.3072 7.54652 13.2991C7.53047 13.2951 7.51824 13.292 7.51001 13.29C7.5059 13.2889 7.50278 13.2882 7.5007 13.2876C7.49966 13.2874 7.49887 13.2872 7.49834 13.2871C7.49808 13.287 7.49788 13.2869 7.49775 13.2869C7.49768 13.2869 7.49763 13.2869 7.4976 13.2869C7.49756 13.2869 7.49755 13.2869 7.37598 13.7719ZM13.7723 15.9231C14.881 16.2229 16.8076 16.7669 18.4597 17.2367C19.2851 17.4714 20.0411 17.6874 20.5908 17.8446C20.8656 17.9232 21.0888 17.9872 21.2433 18.0315C21.3205 18.0537 21.3806 18.0709 21.4213 18.0826C21.4417 18.0884 21.4572 18.0929 21.4677 18.0959C21.4729 18.0974 21.4769 18.0985 21.4795 18.0993C21.4808 18.0997 21.4818 18.0999 21.4825 18.1001C21.4828 18.1002 21.4831 18.1003 21.4832 18.1003C21.4833 18.1004 21.4834 18.1004 21.4834 18.1004C21.4834 18.1004 21.4835 18.1004 21.6215 17.6198C21.7595 17.1393 21.7595 17.1393 21.7594 17.1392C21.7594 17.1392 21.7593 17.1392 21.7592 17.1392C21.7591 17.1391 21.7588 17.1391 21.7585 17.139C21.7578 17.1388 21.7568 17.1385 21.7555 17.1381C21.7528 17.1373 21.7489 17.1362 21.7436 17.1347C21.7331 17.1317 21.7176 17.1272 21.6972 17.1214C21.6563 17.1097 21.5962 17.0924 21.5189 17.0702C21.3642 17.0259 21.1408 16.9619 20.8658 16.8832C20.3158 16.7258 19.5593 16.5097 18.7332 16.2748C17.0821 15.8053 15.1494 15.2596 14.0333 14.9578L13.7723 15.9231ZM21.5141 18.1082C22.3467 18.2913 22.6175 18.8783 22.5653 19.3672C22.5119 19.8668 22.1327 20.2919 21.4594 20.2292L21.3667 21.2249C22.6458 21.3439 23.4548 20.4537 23.5596 19.4735C23.6655 18.4826 23.0643 17.4252 21.7289 17.1315L21.5141 18.1082ZM21.4925 20.2334L15.7984 19.3169L15.6395 20.3042L21.3336 21.2207L21.4925 20.2334ZM15.6377 20.3039L22.732 21.4731L22.8946 20.4864L15.8003 19.3172L15.6377 20.3039ZM22.6469 21.4512C23.1674 21.6349 23.7327 21.5847 24.2121 21.3668L23.7983 20.4564C23.5285 20.5791 23.2311 20.597 22.9797 20.5082L22.6469 21.4512ZM24.2226 21.3619L31.771 17.7182L31.3363 16.8177L23.7878 20.4613L24.2226 21.3619ZM31.7676 17.7198C31.8628 17.6748 31.9728 17.666 32.091 17.7015L32.3783 16.7436C32.0425 16.6429 31.6758 16.6568 31.3396 16.8161L31.7676 17.7198ZM32.0728 17.6956L32.9355 17.9908L33.2592 17.0446L32.3965 16.7495L32.0728 17.6956ZM32.9369 17.9913C33.2483 18.0967 33.3012 18.5209 33.0278 18.6998L33.5755 19.5365C34.5508 18.8981 34.3539 17.4154 33.2577 17.0441L32.9369 17.9913ZM33.0272 18.7002L24.6274 24.2168L25.1764 25.0527L33.5761 19.5361L33.0272 18.7002ZM24.6263 24.2176C24.4097 24.3607 24.1612 24.421 23.8517 24.4365C23.5138 24.4534 23.2067 24.4186 22.7811 24.4074L22.7547 25.407C23.0764 25.4155 23.5184 25.4544 23.9018 25.4352C24.3136 25.4146 24.7585 25.3288 25.1775 25.0519L24.6263 24.2176ZM22.794 24.4079L15.1775 24.0106L15.1254 25.0092L22.7419 25.4065L22.794 24.4079ZM15.167 24.0101C14.8559 24.0004 14.5438 23.9421 14.2403 23.8344L13.9059 24.7768C14.3061 24.9188 14.7204 24.9967 15.1358 25.0097L15.167 24.0101ZM14.2464 23.8366L7.54927 21.3621L7.20268 22.3001L13.8998 24.7746L14.2464 23.8366ZM7.87598 21.8311V13.7719H6.87598V21.8311H7.87598Z" fill="#7C878E"/>
<path d="M1.17822 21.5814V12.7957C1.17822 12.4438 1.36617 12.1487 1.60675 12.1487H4.62151C4.85457 12.1487 5.05004 12.4325 5.05004 12.7957V21.5814C5.05004 21.9332 4.86209 22.2284 4.62151 22.2284H1.60675C1.36617 22.217 1.17822 21.9332 1.17822 21.5814Z" stroke="#7C878E" stroke-miterlimit="10"/>
<path d="M12.4727 12.9659C12.0527 11.9443 11.8257 10.8319 11.8257 9.66279C11.8257 4.84997 15.7304 0.945221 20.5433 0.945221C25.3561 0.945221 29.2608 4.84997 29.2608 9.66279C29.2608 12.8638 27.5355 15.6675 24.9588 17.1772" stroke="#7C878E" stroke-miterlimit="10"/>
<path d="M20.0982 10.1617H19.5982V10.6617V13.2719H19.0771V6.1105H21.2106C22.0593 6.1105 22.6918 6.3015 23.1017 6.62466C23.4932 6.9332 23.7413 7.4085 23.7413 8.13043V8.17583C23.7413 8.90412 23.4857 9.36965 23.0948 9.66859C22.6828 9.98364 22.0565 10.1617 21.2446 10.1617H20.0982ZM20.0982 6.29101H19.5982V6.79101V9.572V10.072H20.0982H21.2106C21.7817 10.072 22.3036 9.93619 22.6861 9.59157C23.0775 9.23888 23.243 8.74029 23.243 8.18718V8.14178C23.243 7.55865 23.0672 7.05767 22.6548 6.71843C22.262 6.39534 21.7391 6.29101 21.1992 6.29101H20.0982Z" fill="#7C878E" stroke="#C8102E"/>
<path d="M17.9082 11.9438V11.8541H20.8016V11.9438H17.9082Z" fill="#7C878E" stroke="#C8102E"/>
<path d="M17.9082 10.1617V10.072H20.8016V10.1617H17.9082Z" fill="#7C878E" stroke="#C8102E"/>
</svg>
